<?xml version="1.0" encoding="utf-8"?>
<svg width="800px" height="800px" viewBox="0 0 512 512" enable-background="new 0 0 512 512" id="Dragon_x5F_Egg" version="1.1" xmlns="http://www.w3.org/2000/svg" xmlns:bx="https://boxy-svg.com">
  <defs/>
  <path d="M 223.323 143.619 C 223.323 143.619 244.917 154.124 267.906 146.43 C 271.696 145.162 275.741 147.514 276.642 151.408 C 279.704 164.638 285.012 192.518 282.371 217.682 L 300.462 226.614 C 300.462 226.614 325.337 239.96 346.594 226.614 L 320.815 266.636 C 320.815 266.636 282.372 195.63 209.555 182.966 L 223.323 143.619 Z" fill="#632E54"/>
  <path d="M 301.579 231.22 C 301.579 231.22 315.607 181.682 367.337 175.545 L 307.277 147.933 L 267.626 198.996 L 301.579 231.22 Z" fill="#FFF4B2"/>
  <path d="M 367.337 172.097 C 367.337 172.097 380.488 129.132 425.643 130.858 C 462.76 132.276 485.803 152.246 494.903 163.538 C 495.735 164.571 497.388 163.746 497.003 162.476 C 488.524 134.548 447.372 31.954 302.896 44.468 L 292.813 58.935 L 310.348 139.598 L 367.337 172.097 Z" fill="#FFF4B2"/>
  <linearGradient gradientUnits="userSpaceOnUse" id="SVGID_1_" x1="408.2012" x2="68.0818" y1="75.5918" y2="313.4451" gradientTransform="matrix(1, 0, 0, 1, 35, 0)">
    <stop offset="0" style="stop-color:#FFB77F"/>
    <stop offset="1" style="stop-color:#C6753E"/>
  </linearGradient>
  <path d="M 282.547 72.716 C 290.514 100.065 300.475 156.703 262.534 195.496 L 271.822 201.881 C 271.822 201.881 283.338 190.597 295.375 171.428 C 301.004 162.463 312.095 158.615 321.974 162.417 L 369.318 180.639 C 371.531 181.491 374.026 180.505 375.06 178.371 C 376.092 176.238 375.32 173.67 373.281 172.461 L 321.551 141.788 C 315.274 138.066 311.256 131.5 310.752 124.22 C 309.846 111.124 307.449 89.2 301.159 71.194 C 299.314 65.915 300.361 60.061 303.807 55.656 L 303.935 55.493 C 306.9 51.704 311.261 49.325 316.014 48.962 C 345.472 46.713 452.435 47.857 496.812 175.662 C 497.3 177.067 498.618 178.031 500.105 178.031 C 502.212 178.031 503.855 176.187 503.584 174.096 C 500.471 150.138 476.42 25.065 313.975 29.783 C 304.067 30.071 294.748 34.637 288.555 42.378 C 281.722 50.919 279.489 62.218 282.547 72.716 Z" fill="url(#SVGID_1_)"/>
  <path d="M 271.821 201.881 C 271.821 201.881 277.571 196.235 285.182 186.181 C 280.156 185.765 275.911 184.662 272.489 183.394 C 269.608 187.573 266.319 191.626 262.533 195.497 L 271.821 201.881 Z" fill="#C6753E"/>
  <linearGradient gradientUnits="userSpaceOnUse" id="SVGID_2_" x1="258.6299" x2="206.7054" y1="213.1631" y2="304.0309" gradientTransform="matrix(1, 0, 0, 1, 35, 0)">
    <stop offset="0" style="stop-color:#FFB77F"/>
    <stop offset="1" style="stop-color:#C6753E"/>
  </linearGradient>
  <path d="M 211.495 169.375 C 211.495 169.375 308.549 181.855 329.947 276.616 L 329.947 337.129 L 176.045 337.129 C 176.045 337.129 181.354 230.904 211.495 169.375 Z" fill="url(#SVGID_2_)"/>
  <path d="M 270.547 295.021 L 234.544 269.015 C 231.611 266.897 231.252 262.664 233.787 260.082 L 248.618 244.974 C 251.536 242.002 251.117 237.135 247.721 234.724 C 237.525 227.483 216.789 212.726 196.685 198.245 C 176.643 259.262 172.735 337.129 172.735 337.129 L 273.914 337.129 L 270.547 295.021 Z" fill="#C6753E"/>
  <path d="M 109.055 402.715 C 109.055 402.715 132.773 482.345 235.382 482.345 C 235.382 482.345 328.867 482.345 345.042 402.715 C 345.041 402.715 245.918 376.586 109.055 402.715 Z" fill="#AF6D94"/>
  <path d="M 321.059 397.968 L 321.06 397.965 C 320.74 397.913 320.379 397.86 320.053 397.807 C 319.022 397.642 317.961 397.476 316.87 397.31 C 316.328 397.227 315.795 397.145 315.238 397.062 C 315.062 397.036 314.9 397.009 314.722 396.983 C 314.722 396.984 314.722 396.986 314.722 396.987 C 287.258 392.923 242.631 388.825 186.999 392.647 L 192.217 426.802 C 192.217 426.802 209.556 421.287 218.663 417.772 C 221.065 416.845 223.749 417.134 225.865 418.601 C 232.915 423.489 249.666 434.442 263.792 438.585 C 265.328 439.035 266.944 438.937 268.448 438.389 C 274.798 436.079 292.917 429.121 306.737 420.193 C 297.72 440.319 280.352 466.134 247.558 481.443 C 273.409 478.341 332.489 464.506 345.04 402.715 C 345.041 402.715 336.499 400.479 321.059 397.968 Z" fill="#632E54"/>
  <path d="M 87.074 347.141 C 87.074 347.141 83.865 386.851 101.905 416.569 C 102.543 417.619 103.312 418.579 104.166 419.463 C 106.446 421.823 111.34 426.716 116.355 430.636 C 119.404 433.019 123.787 432.474 126.127 429.392 C 130.625 423.468 138.317 414.023 145.097 409.088 C 147.498 407.34 150.737 407.373 153.059 409.226 C 159.202 414.127 172.935 424.282 187.188 429.447 C 189.171 430.167 191.376 429.84 193.139 428.681 C 198.907 424.891 212.294 415.946 220.726 409.124 C 222.933 407.339 226.032 407.229 228.392 408.807 C 235.42 413.504 250.298 422.882 262.338 426.654 C 264.459 427.318 266.74 426.938 268.521 425.609 C 274.5 421.147 288.981 410.098 296.982 401.923 C 299.248 399.609 302.882 399.374 305.467 401.326 C 312.256 406.455 324.921 416.235 334.672 425.011 C 337.314 427.388 341.291 427.413 343.91 425.013 C 347.994 421.274 353.755 415.915 356.949 412.575 C 358.112 411.36 359.044 410.002 359.765 408.482 C 363.829 399.916 378.191 366.803 372.828 336.772 L 372.828 320.182 L 215.228 330.551 L 105.322 337.602 L 87.074 347.141 Z" fill="#AF6D94"/>
  <path d="M 372.828 336.771 L 372.828 320.181 L 347.32 321.859 L 215.228 330.55 L 161.24 334.013 L 175.751 362.954 C 175.751 362.954 191.463 354.99 200.512 350.17 C 202.827 348.937 205.659 349.396 207.476 351.287 C 213.112 357.153 226.296 369.684 243.738 378.597 C 245.724 379.612 248.119 379.355 249.885 377.993 C 255.141 373.942 266.415 364.898 274.231 356.089 C 276.416 353.627 280.222 353.538 282.589 355.827 C 287.865 360.927 296.507 369.551 302.037 376.464 C 303.815 378.689 306.969 379.259 309.431 377.829 C 311.695 376.515 314.635 374.601 317.899 371.968 C 315.49 381.297 311.927 391.786 306.574 402.165 C 313.566 407.469 325.426 416.685 334.7 425.033 C 337.329 427.399 341.285 427.417 343.893 425.028 C 347.987 421.278 353.774 415.895 356.97 412.552 C 358.119 411.349 359.041 410.005 359.754 408.502 C 363.805 399.973 378.195 366.828 372.828 336.771 Z" fill="#7C3E65"/>
  <path d="M 104.907 239.308 C 104.907 239.308 77.051 282.428 78.438 337.555 C 78.554 342.137 80.225 346.543 83.197 350.034 C 86.762 354.222 92.203 360.296 98.467 366.21 C 99.965 367.625 102.272 367.704 103.816 366.339 C 109.46 361.349 123.081 349.683 134.137 343.223 C 135.226 342.586 136.589 342.78 137.484 343.669 C 141.682 347.839 154.517 359.763 171.389 367.642 C 172.819 368.31 174.507 368.046 175.681 366.991 C 180.616 362.551 193.931 350.311 202.558 339.94 C 203.595 338.693 205.431 338.527 206.632 339.616 C 212.441 344.883 228.831 359.22 243.724 367.343 C 245.273 368.188 247.185 367.855 248.409 366.584 C 253.567 361.226 267.066 346.737 274.143 334.755 C 275.038 333.238 277.09 332.94 278.404 334.112 C 284.141 339.234 297.821 351.769 304.493 360.607 C 305.895 362.463 308.565 362.708 310.281 361.138 C 316.389 355.546 329.159 343.003 335.198 330.765 C 336.045 329.048 338.302 328.675 339.677 330.005 C 344.952 335.107 356.101 346.409 362.56 356.728 C 364.231 359.396 368.136 359.28 369.507 356.446 C 371.929 351.439 375.501 344.647 379.613 338.703 C 382.312 334.803 383.358 330.012 382.79 325.302 C 381.118 311.43 376.492 283.196 365.36 267.241 C 364.36 265.808 362.744 264.961 361.003 264.812 C 350.007 263.874 308.29 259.55 288.816 246.638 C 287.003 245.436 284.706 245.26 282.678 246.047 L 245.505 260.461 C 245.505 260.461 260.85 271.244 264.168 275.393 C 264.168 275.393 265.412 306.913 263.338 317.282 C 263.338 317.282 258.776 298.618 253.384 290.323 C 253.384 290.323 227.67 281.614 216.058 257.559 L 211.495 239.31 L 104.907 239.31 L 104.907 239.308 Z" fill="#AF6D94"/>
  <path d="M 369.506 356.443 C 371.928 351.437 375.5 344.645 379.612 338.701 C 382.312 334.801 383.356 330.01 382.789 325.299 C 381.117 311.428 376.491 283.194 365.359 267.239 C 364.359 265.805 362.743 264.959 361.002 264.809 C 351.044 263.96 315.941 260.31 294.93 250.043 C 305.442 268.856 324.004 310.161 315.941 355.711 C 322.387 349.253 330.676 339.924 335.198 330.763 C 336.045 329.046 338.302 328.673 339.677 330.003 C 344.952 335.105 356.101 346.407 362.56 356.726 C 364.229 359.395 368.135 359.277 369.506 356.443 Z" fill="#7C3E65"/>
  <path d="M 205.107 266.977 L 217.534 277.024 C 219.194 278.366 221.632 278.083 222.938 276.395 L 226.205 272.174 C 222.385 268.101 218.818 263.276 216.058 257.557 L 211.495 239.308 L 185.593 239.308 L 170.11 277.896 C 170.11 277.896 188.156 273.012 199.904 266.491 C 201.57 265.566 203.625 265.779 205.107 266.977 Z" fill="#7C3E65"/>
  <path d="M 344.244 221.339 L 314.898 261.205 C 312.982 263.807 313.732 267.48 316.533 269.09 C 324.02 273.394 337.887 281.203 346.726 285.205 C 348.922 286.199 351.482 285.815 353.278 284.209 C 357.954 280.025 367.137 271.437 372.035 264.338 C 373.378 262.393 373.582 259.878 372.681 257.692 C 369.73 250.521 361.96 233.468 350.283 221.016 C 348.599 219.218 345.705 219.355 344.244 221.339 Z" fill="#7C3E65"/>
  <path d="M 104.221 287.805 C 101.376 291.254 98.105 297.112 96.608 306.645 C 96.328 308.424 96.316 310.254 96.593 312.035 C 96.998 314.634 98.031 318.21 100.628 321.211 C 101.997 322.793 104.431 322.901 105.94 321.452 C 106.905 320.524 108.037 319.354 109.133 318.026 C 111.4 315.278 112.808 311.921 113.225 308.383 C 113.755 303.883 113.98 296.671 111.658 289.222 C 110.646 285.976 106.384 285.181 104.221 287.805 Z" fill="#EFC3EB"/>
  <path d="M 128.133 172.12 C 128.133 172.12 103.33 209.324 91.936 235.781 C 91.117 237.683 90.641 239.689 90.439 241.75 C 90.036 245.861 89.483 253.367 89.788 261.473 C 89.984 266.682 95.509 269.943 100.119 267.508 C 109.726 262.436 124.7 254.711 134.854 250.347 C 136.835 249.496 139.107 250.361 140.05 252.3 C 142.906 258.167 149.794 270.283 161.379 278.885 C 165.327 281.816 170.692 281.918 174.733 279.117 C 181.466 274.448 192.317 266.123 201.197 255.575 C 202.474 254.058 204.778 254.008 206.053 255.527 C 208.424 258.35 212.192 262.726 215.842 266.498 C 217.424 268.133 220.096 267.945 221.402 266.081 C 226.563 258.712 238.977 241.177 249.521 227.768 C 251.168 225.673 250.728 222.641 248.57 221.079 L 209.007 192.443 C 209.007 192.442 162.141 171.291 128.133 172.12 Z" fill="#AF6D94"/>
  <path d="M 209.007 192.442 C 209.007 192.442 190.379 184.039 168.091 178.033 L 168.091 182.579 C 168.091 182.579 168.442 195.196 190.6 216.072 C 192.434 217.8 195.158 218.192 197.37 216.983 L 223.323 202.804 L 209.007 192.442 Z" fill="#7C3E65"/>
  <path d="M 130.17 204.593 C 126.008 207.364 120.611 212.573 115.922 222.293 C 115.047 224.107 114.441 226.062 114.162 228.057 C 113.754 230.969 113.703 235.132 115.509 239.184 C 116.462 241.321 119.032 242.225 121.116 241.162 C 122.449 240.482 124.04 239.596 125.643 238.529 C 128.959 236.322 131.554 233.185 133.145 229.534 C 135.169 224.889 137.745 217.243 137.67 208.518 C 137.638 204.716 133.335 202.485 130.17 204.593 Z" fill="#EFC3EB"/>
  <path d="M 204.579 102.659 C 187.107 108.758 143.925 127.159 125.586 164.983 L 122.356 186.52 C 121.593 191.601 126.588 195.644 131.386 193.805 C 141.448 189.949 151.855 185.893 164.031 184.211 C 165.591 183.995 167.157 184.726 168.014 186.047 C 170.934 190.548 178.379 201.073 188.078 207.78 C 190.224 209.263 193.022 209.43 195.355 208.263 L 207.344 202.268 C 210.34 200.77 212.542 198.058 213.416 194.824 C 216.14 184.746 222.951 162.001 232.104 148.797 C 233.939 146.15 234.133 142.719 232.418 139.993 C 227.819 132.68 219.018 118.149 214.45 107.07 C 212.856 103.205 208.528 101.28 204.579 102.659 Z" fill="#AF6D94"/>
  <path d="M 180.32 130.948 C 174.724 131.956 166.737 134.948 157.448 142.966 C 155.714 144.463 154.198 146.227 153.004 148.182 C 151.261 151.036 149.324 155.355 149.376 160.4 C 149.403 163.06 151.675 165.166 154.33 165 C 156.029 164.894 158.089 164.689 160.244 164.301 C 164.702 163.499 168.828 161.4 172.14 158.312 C 176.353 154.383 182.499 147.571 186.369 138.436 C 188.054 134.455 184.575 130.181 180.32 130.948 Z" fill="#EFC3EB"/>
  <path d="M 75.43 29.841 H 101.731 V 82.442 H 154.331 V 108.743 H 101.731 V 161.343 H 75.43 V 108.743 H 22.829 V 82.442 H 75.43 Z" style="stroke-width: 7px; paint-order: fill; stroke: rgb(124, 62, 101); fill: rgb(239, 195, 234);" bx:shape="cross 22.829 29.841 131.502 131.502 26.301 26.301 0.5 1@6540ae7f"/>
</svg>